<svg width="512" height="416" viewBox="0 0 512 416" fill="none" xmlns="http://www.w3.org/2000/svg">
<g style="mix-blend-mode:difference">
<path d="M496 144C486.4 144 480 150.4 480 160C480 252.8 422.4 332.8 342.4 366.4C387.2 328 416 272 416 208C416 92.8 323.2 0 208 0C92.8 0 0 92.8 0 208C0 323.2 92.8 416 208 416H256C396.8 416 512 300.8 512 160C512 150.4 505.6 144 496 144ZM104 160C120 168 136 168 152 160C168 152 176 124.379 176 128C176 131.621 172.939 147.994 161.6 161.6C153.6 171.2 140.8 176 128 176C115.2 176 102.4 171.2 94.4 161.6C85.653 151.104 80 136 80 128C80 125.549 88 152 104 160ZM161.6 321.6C153.6 331.2 140.8 336 128 336C115.2 336 102.4 331.2 94.4 321.6C84.8 313.6 80 300.8 80 288C80 275.2 84.8 262.4 94.4 254.4C112 236.8 144 236.8 161.6 254.4C171.2 264 176 275.2 176 288C176 300.8 171.2 313.6 161.6 321.6ZM174.4 241.6C164.8 233.6 160 220.8 160 208C160 195.2 164.8 182.4 174.4 174.4C192 156.8 224 156.8 241.6 174.4C251.2 184 256 195.2 256 208C256 220.8 251.2 233.6 241.6 241.6C233.6 251.2 220.8 256 208 256C195.2 256 182.4 251.2 174.4 241.6ZM321.6 321.6C313.6 331.2 300.8 336 288 336C275.2 336 262.4 331.2 254.4 321.6C244.8 313.6 240 300.8 240 288C240 275.2 244.8 262.4 254.4 254.4C272 236.8 304 236.8 321.6 254.4C331.2 264 336 275.2 336 288C336 300.8 331.2 313.6 321.6 321.6ZM321.6 161.6C315.519 166.668 312 144 288 144C264 144 261.388 167.423 254.4 161.6C244.8 153.6 240 140.8 240 128C240 115.2 244.8 102.4 254.4 94.4C272 76.8 304 76.8 321.6 94.4C331.2 102.4 336 115.2 336 128C336 140.8 331.2 153.6 321.6 161.6Z" fill="url(#paint0_linear)"/>
</g>
<defs>
<linearGradient id="paint0_linear" x1="207" y1="7.92656e-08" x2="209" y2="416" gradientUnits="userSpaceOnUse">
<stop stop-color="#FF0000"/>
<stop offset="0.458333" stop-color="#14FF00"/>
<stop offset="1" stop-color="#0047FF"/>
</linearGradient>
</defs>
</svg>
